<svg width="27" height="27" viewBox="0 0 27 27" fill="none" xmlns="http://www.w3.org/2000/svg">
<path d="M25.8658 18.8917C25.8196 18.8533 20.5869 15.1252 19.1741 15.3582C18.4925 15.4786 18.1033 15.9437 17.3222 16.874C17.1063 17.133 16.8854 17.3879 16.6598 17.6385C16.1662 17.4777 15.6847 17.2817 15.219 17.0521C12.8152 15.8818 10.873 13.9396 9.70278 11.5358C9.47314 11.0702 9.27716 10.5887 9.11633 10.095C9.3729 9.86024 9.73245 9.55742 9.88604 9.42826C10.812 8.65157 11.2762 8.26148 11.3967 7.57904C11.6436 6.16616 7.90155 0.935271 7.86315 0.888146C7.69274 0.64646 7.47079 0.445627 7.21333 0.300144C6.95586 0.15466 6.66931 0.0681556 6.37435 0.046875C4.85762 0.046875 0.527344 5.66349 0.527344 6.61036C0.527344 6.66534 0.606758 12.254 7.49837 19.2643C14.5008 26.1481 20.0895 26.2275 20.1445 26.2275C21.0905 26.2275 26.708 21.8972 26.708 20.3805C26.6865 20.0855 26.5998 19.7989 26.4541 19.5415C26.3085 19.284 26.1076 19.0621 25.8658 18.8917ZM20.0476 24.4769C19.2901 24.4123 14.5951 23.7936 8.73061 18.033C2.94207 12.1397 2.33904 7.43679 2.27883 6.7081C3.42273 4.91267 4.8042 3.2802 6.38569 1.85508C6.4206 1.88999 6.46685 1.94235 6.5262 2.01042C7.73908 3.66611 8.78391 5.43857 9.64518 7.30153C9.3651 7.58329 9.06906 7.84874 8.75853 8.09654C8.27698 8.46347 7.83478 8.87934 7.43903 9.33751C7.37207 9.43146 7.3244 9.53776 7.29878 9.65026C7.27317 9.76275 7.27011 9.87921 7.2898 9.99289C7.47448 10.7929 7.75734 11.567 8.13194 12.2977C9.47404 15.0536 11.701 17.2803 14.4572 18.622C15.1877 18.9972 15.9618 19.2803 16.7619 19.465C16.8756 19.4847 16.9921 19.4817 17.1046 19.4561C17.2171 19.4304 17.3234 19.3828 17.4173 19.3158C17.8771 18.9185 18.2944 18.4745 18.6627 17.9911C18.9367 17.6647 19.3023 17.2292 19.4411 17.1062C21.3088 17.9666 23.0852 19.0127 24.7435 20.2286C24.816 20.2897 24.8675 20.3369 24.9015 20.3674C23.4763 21.9494 21.8435 23.3312 20.0476 24.4751V24.4769Z" fill="white"/>
<path d="M14.4899 7.02662C15.8782 7.02801 17.2092 7.58012 18.1908 8.56178C19.1725 9.54344 19.7246 10.8745 19.726 12.2627C19.726 12.4942 19.8179 12.7162 19.9816 12.8798C20.1453 13.0435 20.3672 13.1354 20.5987 13.1354C20.8301 13.1354 21.0521 13.0435 21.2158 12.8798C21.3794 12.7162 21.4714 12.4942 21.4714 12.2627C21.4693 10.4118 20.7331 8.63721 19.4242 7.32838C18.1154 6.01954 16.3408 5.28333 14.4899 5.28125C14.2584 5.28125 14.0365 5.37319 13.8728 5.53685C13.7091 5.70052 13.6172 5.92249 13.6172 6.15394C13.6172 6.38539 13.7091 6.60736 13.8728 6.77102C14.0365 6.93468 14.2584 7.02662 14.4899 7.02662Z" fill="white"/>
<path d="M14.4899 2.66725C17.0349 2.67025 19.4749 3.6826 21.2745 5.48221C23.0741 7.28183 24.0864 9.72177 24.0894 12.2668C24.0894 12.4983 24.1814 12.7202 24.345 12.8839C24.5087 13.0476 24.7307 13.1395 24.9621 13.1395C25.1936 13.1395 25.4155 13.0476 25.5792 12.8839C25.7429 12.7202 25.8348 12.4983 25.8348 12.2668C25.8313 9.25901 24.635 6.37539 22.5081 4.24856C20.3813 2.12172 17.4977 0.92534 14.4899 0.921875C14.2584 0.921875 14.0365 1.01382 13.8728 1.17748C13.7091 1.34114 13.6172 1.56311 13.6172 1.79456C13.6172 2.02601 13.7091 2.24799 13.8728 2.41165C14.0365 2.57531 14.2584 2.66725 14.4899 2.66725Z" fill="white"/>
</svg>
