<svg width="48" height="48" viewBox="0 0 48 48" fill="none" xmlns="http://www.w3.org/2000/svg">
<path d="M0 24C0 10.7452 10.7452 0 24 0C37.2548 0 48 10.7452 48 24C48 37.2548 37.2548 48 24 48C10.7452 48 0 37.2548 0 24Z" fill="#22C55E" fill-opacity="0.2"/>
<path d="M24 0.5C36.9787 0.5 47.5 11.0213 47.5 24C47.5 36.9787 36.9787 47.5 24 47.5C11.0213 47.5 0.5 36.9787 0.5 24C0.5 11.0213 11.0213 0.5 24 0.5Z" stroke="#4ADE80" stroke-opacity="0.3"/>
<path d="M32 36H16V12H32V36Z" stroke="#E5E7EB"/>
<path d="M32 31H16V15H32V31Z" stroke="#E5E7EB"/>
<path d="M21.75 16.5H26.25C26.3875 16.5 26.5 16.6125 26.5 16.75V18H21.5V16.75C21.5 16.6125 21.6125 16.5 21.75 16.5ZM20 16.75V18H18C16.8969 18 16 18.8969 16 20V23H22H26H32V20C32 18.8969 31.1031 18 30 18H28V16.75C28 15.7844 27.2156 15 26.25 15H21.75C20.7844 15 20 15.7844 20 16.75ZM32 24H26V25C26 25.5531 25.5531 26 25 26H23C22.4469 26 22 25.5531 22 25V24H16V28C16 29.1031 16.8969 30 18 30H30C31.1031 30 32 29.1031 32 28V24Z" fill="#86EFAC"/>
</svg>
