<svg width="48" height="48" viewBox="0 0 48 48" fill="none" xmlns="http://www.w3.org/2000/svg">
<path d="M0 24C0 10.7452 10.7452 0 24 0C37.2548 0 48 10.7452 48 24C48 37.2548 37.2548 48 24 48C10.7452 48 0 37.2548 0 24Z" fill="#EF4444" fill-opacity="0.2"/>
<path d="M24 0.5C36.9787 0.5 47.5 11.0213 47.5 24C47.5 36.9787 36.9787 47.5 24 47.5C11.0213 47.5 0.5 36.9787 0.5 24C0.5 11.0213 11.0213 0.5 24 0.5Z" stroke="#F87171" stroke-opacity="0.3"/>
<path d="M32 36H16V12H32V36Z" stroke="#E5E7EB"/>
<path d="M32 31H16V15H32V31Z" stroke="#E5E7EB"/>
<path d="M17.4875 24.3867L23.1344 29.6586C23.3688 29.8773 23.6781 29.9992 24 29.9992C24.3219 29.9992 24.6313 29.8773 24.8656 29.6586L30.5125 24.3867C31.4625 23.5023 32 22.2617 32 20.9648V20.7836C32 18.5992 30.4219 16.7367 28.2688 16.3773C26.8438 16.1398 25.3938 16.6054 24.375 17.6242L24 17.9992L23.625 17.6242C22.6062 16.6054 21.1562 16.1398 19.7313 16.3773C17.5781 16.7367 16 18.5992 16 20.7836V20.9648C16 22.2617 16.5375 23.5023 17.4875 24.3867Z" fill="#FCA5A5"/>
</svg>
