<svg width="49" height="48" viewBox="0 0 49 48" fill="none" xmlns="http://www.w3.org/2000/svg">
<path d="M0.34375 24C0.34375 10.7452 11.0889 0 24.3438 0C37.5986 0 48.3438 10.7452 48.3438 24C48.3438 37.2548 37.5986 48 24.3438 48C11.0889 48 0.34375 37.2548 0.34375 24Z" fill="#3B82F6" fill-opacity="0.2"/>
<path d="M24.3438 0.5C37.3224 0.5 47.8438 11.0213 47.8438 24C47.8438 36.9787 37.3224 47.5 24.3438 47.5C11.3651 47.5 0.84375 36.9787 0.84375 24C0.84375 11.0213 11.3651 0.5 24.3438 0.5Z" stroke="#60A5FA" stroke-opacity="0.3"/>
<path d="M32.3438 36H16.3438V12H32.3438V36Z" stroke="#E5E7EB"/>
<g clip-path="url(#clip0_1523_17603)">
<path d="M32.3438 17.5C32.3438 18.0625 31.8969 18.5812 31.1438 19C30.2344 19.5031 28.8781 19.8594 27.3219 19.9656C27.2062 19.9094 27.0906 19.8562 26.9688 19.8094C25.7375 19.2937 24.1 19 22.3438 19C22.0844 19 21.8313 19.0063 21.5781 19.0188L21.5437 19C20.7906 18.5812 20.3438 18.0625 20.3438 17.5C20.3438 16.1187 23.0312 15 26.3438 15C29.6562 15 32.3438 16.1187 32.3438 17.5ZM21.3656 20.0344C21.6844 20.0125 22.0125 20 22.3438 20C24.2875 20 26.0125 20.3844 27.1094 20.9812C27.8844 21.4031 28.3438 21.9281 28.3438 22.5C28.3438 22.625 28.3219 22.7469 28.2781 22.8656C28.1344 23.2781 27.7469 23.6562 27.1844 23.975C27.1812 23.9781 27.175 23.9781 27.1719 23.9812C27.1625 23.9875 27.1531 23.9906 27.1438 23.9969C26.05 24.6031 24.3063 24.9969 22.3438 24.9969C20.4812 24.9969 18.8156 24.6437 17.7125 24.0875C17.6531 24.0594 17.5969 24.0281 17.5406 23.9969C16.7906 23.5813 16.3438 23.0625 16.3438 22.5C16.3438 21.4125 18.0125 20.4844 20.3438 20.1438C20.6719 20.0969 21.0125 20.0594 21.3656 20.0344ZM29.3438 22.5C29.3438 21.8156 29.0125 21.2531 28.5906 20.8313C29.475 20.6938 30.2844 20.475 30.9719 20.1906C31.4812 19.9781 31.9563 19.7156 32.3438 19.3938V20.5C32.3438 21.1031 31.8281 21.6594 30.975 22.0906C30.5188 22.3219 29.9625 22.5187 29.3375 22.6687C29.3406 22.6125 29.3438 22.5594 29.3438 22.5031V22.5ZM28.3438 25.5C28.3438 26.0625 27.8969 26.5813 27.1438 27C27.0875 27.0312 27.0312 27.0594 26.9719 27.0906C25.8719 27.6469 24.2063 28 22.3438 28C20.3812 28 18.6375 27.6062 17.5438 27C16.7906 26.5813 16.3438 26.0625 16.3438 25.5V24.3938C16.7344 24.7156 17.2063 24.9781 17.7156 25.1906C18.95 25.7063 20.5875 26 22.3438 26C24.1 26 25.7375 25.7063 26.9719 25.1906C27.2156 25.0906 27.45 24.975 27.6719 24.85C27.8625 24.7438 28.0406 24.625 28.2094 24.5C28.2563 24.4656 28.3 24.4281 28.3438 24.3938V24.5V24.6781V25.5ZM29.3438 25.5V24.5V23.6906C29.9375 23.5594 30.4844 23.3938 30.9719 23.1906C31.4812 22.9781 31.9563 22.7156 32.3438 22.3938V23.5C32.3438 23.8281 32.1875 24.1562 31.8781 24.4656C31.3688 24.975 30.4719 25.3937 29.3375 25.6656C29.3406 25.6125 29.3438 25.5562 29.3438 25.5ZM22.3438 29C24.1 29 25.7375 28.7063 26.9719 28.1906C27.4812 27.9781 27.9563 27.7156 28.3438 27.3938V28.5C28.3438 29.8813 25.6562 31 22.3438 31C19.0312 31 16.3438 29.8813 16.3438 28.5V27.3938C16.7344 27.7156 17.2063 27.9781 17.7156 28.1906C18.95 28.7063 20.5875 29 22.3438 29Z" fill="#93C5FD"/>
</g>
<defs>
<clipPath id="clip0_1523_17603">
<path d="M16.3438 15H32.3438V31H16.3438V15Z" fill="white"/>
</clipPath>
</defs>
</svg>
