<svg width="28" height="28" viewBox="0 0 28 28" fill="none" xmlns="http://www.w3.org/2000/svg">
<path d="M13.479 27.6696C11.2104 27.6842 8.97539 27.1211 6.98449 26.0334C6.94461 26.0168 6.90184 26.0082 6.85863 26.0082C6.81543 26.0082 6.77265 26.0168 6.73277 26.0334L2.28984 27.292C2.01791 27.3786 1.72747 27.3889 1.45009 27.3219C1.17272 27.2548 0.919024 27.1131 0.716598 26.9119C0.514172 26.7108 0.370763 26.458 0.301965 26.1811C0.233167 25.9041 0.241614 25.6136 0.326387 25.3412L1.66053 20.8731C1.6895 20.796 1.6895 20.711 1.66053 20.6339C0.296058 18.1401 -0.248281 15.2799 0.104768 12.4592C0.457816 9.6385 1.69032 7.00066 3.62734 4.92006C5.56436 2.83947 8.10749 1.42182 10.8958 0.868332C13.6841 0.31484 16.5759 0.653625 19.1607 1.8366C21.7456 3.01958 23.8922 4.98664 25.2959 7.45861C26.6995 9.93058 27.2889 12.7819 26.9805 15.6078C26.672 18.4337 25.4813 21.0907 23.5774 23.2016C21.6734 25.3125 19.153 26.7701 16.3738 27.3675C15.4215 27.5655 14.4516 27.6667 13.479 27.6696ZM6.82087 24.0574C7.19454 24.0625 7.56148 24.1575 7.8907 24.3343C9.5195 25.2275 11.3384 25.718 13.1955 25.7649C15.0525 25.8117 16.8938 25.4134 18.5656 24.6034C20.2373 23.7934 21.6909 22.595 22.805 21.1085C23.9191 19.6221 24.6613 17.8905 24.9696 16.0587C25.278 14.2268 25.1435 12.3477 24.5774 10.5784C24.0112 8.80912 23.03 7.20098 21.7155 5.88833C20.401 4.57568 18.7916 3.59663 17.0215 3.03296C15.2514 2.46929 13.3722 2.33737 11.5407 2.64823C9.7057 2.95309 7.97075 3.69415 6.48174 4.80906C4.99274 5.92398 3.79325 7.38016 2.98413 9.05512C2.17502 10.7301 1.77995 12.5749 1.83216 14.4343C1.88437 16.2937 2.38233 18.1134 3.28415 19.7403C3.42595 19.9971 3.51562 20.2795 3.54802 20.571C3.58042 20.8626 3.5549 21.1577 3.47294 21.4394L2.30242 25.3286L6.19156 24.1581C6.39526 24.0938 6.6073 24.0599 6.82087 24.0574Z" fill="white"/>
<path d="M8.44437 16.2794C9.31327 16.2794 10.0176 15.575 10.0176 14.7061C10.0176 13.8372 9.31327 13.1328 8.44437 13.1328C7.57547 13.1328 6.87109 13.8372 6.87109 14.7061C6.87109 15.575 7.57547 16.2794 8.44437 16.2794Z" fill="white"/>
<path d="M13.4795 16.2794C14.3484 16.2794 15.0528 15.575 15.0528 14.7061C15.0528 13.8372 14.3484 13.1328 13.4795 13.1328C12.6106 13.1328 11.9062 13.8372 11.9062 14.7061C11.9062 15.575 12.6106 16.2794 13.4795 16.2794Z" fill="white"/>
<path d="M18.5147 16.2794C19.3836 16.2794 20.088 15.575 20.088 14.7061C20.088 13.8372 19.3836 13.1328 18.5147 13.1328C17.6458 13.1328 16.9414 13.8372 16.9414 14.7061C16.9414 15.575 17.6458 16.2794 18.5147 16.2794Z" fill="white"/>
</svg>
