<svg width="49" height="48" viewBox="0 0 49 48" fill="none" xmlns="http://www.w3.org/2000/svg">
<path d="M0.671875 24C0.671875 10.7452 11.417 0 24.6719 0C37.9267 0 48.6719 10.7452 48.6719 24C48.6719 37.2548 37.9267 48 24.6719 48C11.417 48 0.671875 37.2548 0.671875 24Z" fill="#F97316" fill-opacity="0.2"/>
<path d="M24.6719 0.5C37.6506 0.5 48.1719 11.0213 48.1719 24C48.1719 36.9787 37.6506 47.5 24.6719 47.5C11.6932 47.5 1.17188 36.9787 1.17188 24C1.17188 11.0213 11.6932 0.5 24.6719 0.5Z" stroke="#FB923C" stroke-opacity="0.3"/>
<path d="M32.6719 36H16.6719V12H32.6719V36Z" stroke="#E5E7EB"/>
<g clip-path="url(#clip0_1523_17596)">
<path d="M28.5257 15.1453C28.3319 14.9516 28.0132 14.9516 27.8194 15.1453L27.3194 15.6453C27.1257 15.8391 27.1257 16.1578 27.3194 16.3516L27.8194 16.8516C28.0132 17.0453 28.3319 17.0453 28.5257 16.8516L29.0257 16.3516C29.2194 16.1578 29.2194 15.8391 29.0257 15.6453L28.5257 15.1453ZM20.2725 20.2984C20.5225 20.1109 20.8319 19.9984 21.1725 19.9984C22.0007 19.9984 22.6725 20.6703 22.6725 21.4984C22.6725 22.3266 22.0007 22.9984 21.1725 22.9984H20.1038C19.8663 22.9984 19.6725 23.1922 19.6725 23.4297C19.6725 23.4766 19.6788 23.5203 19.6944 23.5672L19.9444 24.3172C20.0819 24.7266 20.4632 25.0016 20.8944 25.0016H21.1725H21.6725C22.7757 25.0016 23.6725 25.8984 23.6725 27.0016C23.6725 28.1047 22.7757 29.0016 21.6725 29.0016C20.085 29.0016 19.0882 28.3297 18.4788 27.6641C18.1694 27.3266 17.96 26.9891 17.8257 26.7359C17.76 26.6109 17.7132 26.5078 17.685 26.4359C17.6694 26.4016 17.66 26.3734 17.6538 26.3578L17.6475 26.3422V26.3391C17.5663 26.0953 17.3132 25.9547 17.0632 26.0109C16.81 26.0672 16.6444 26.3047 16.6757 26.5609L17.1725 26.4984C16.6757 26.5609 16.6757 26.5609 16.6757 26.5609V26.5641L16.6788 26.5766C16.6788 26.5859 16.6819 26.6016 16.685 26.6172C16.6913 26.6516 16.6975 26.7016 16.71 26.7609C16.735 26.8828 16.7725 27.0547 16.8319 27.2578C16.9507 27.6641 17.1538 28.2078 17.4975 28.7578C18.1944 29.8797 19.4663 30.9984 21.6725 30.9984C23.8819 30.9984 25.6725 29.2078 25.6725 26.9984C25.6725 26.2703 25.4788 25.5859 25.1382 24.9984H25.8444C26.6413 24.9984 27.4038 24.6828 27.9663 24.1203L28.7944 23.2922C28.9819 23.1047 29.235 22.9984 29.5007 22.9984H29.6725C30.2257 22.9984 30.6725 23.4453 30.6725 23.9984V26.9984C30.6725 27.5516 30.2257 27.9984 29.6725 27.9984C28.8694 27.9984 28.3788 27.6078 28.0725 27.1984C27.9163 26.9891 27.81 26.7797 27.7444 26.6172C27.71 26.5391 27.6882 26.4734 27.6757 26.4297C27.6694 26.4078 27.6632 26.3922 27.66 26.3828L27.6569 26.3734C27.5975 26.1453 27.3882 25.9859 27.1507 25.9953C26.9132 26.0047 26.7163 26.1797 26.6788 26.4141L27.1725 26.4984C26.6788 26.4172 26.6788 26.4172 26.6788 26.4172V26.4203L26.6757 26.4297C26.6757 26.4391 26.6725 26.4484 26.6694 26.4641C26.6663 26.4922 26.66 26.5297 26.6569 26.5766C26.6475 26.6703 26.6382 26.8047 26.6382 26.9641C26.6382 27.2797 26.6725 27.7109 26.8194 28.1547C26.9694 28.6016 27.2382 29.0703 27.7132 29.4266C28.1944 29.7891 28.8382 29.9984 29.6725 29.9984C31.3288 29.9984 32.6725 28.6547 32.6725 26.9984V23.9984C32.6725 22.3422 31.3288 20.9984 29.6725 20.9984H29.5007C28.7038 20.9984 27.9413 21.3141 27.3788 21.8766L26.5507 22.7047C26.3632 22.8922 26.11 22.9984 25.8444 22.9984H24.335C24.5507 22.5453 24.6725 22.0359 24.6725 21.4984C24.6725 19.5641 23.1069 17.9984 21.1725 17.9984C20.385 17.9984 19.6569 18.2578 19.0725 18.6984C18.6319 19.0297 18.5413 19.6578 18.8725 20.0984C19.2038 20.5391 19.8319 20.6297 20.2725 20.2984ZM25.4507 17.0828C25.2632 16.9578 25.0132 16.9734 24.8413 17.1234C24.6694 17.2734 24.6225 17.5203 24.7257 17.7234L25.1725 17.4984C24.7257 17.7234 24.7257 17.7234 24.7257 17.7234V17.7266L24.7288 17.7328L24.7413 17.7547C24.7507 17.7734 24.7663 17.7984 24.785 17.8297C24.8225 17.8922 24.8757 17.9797 24.9444 18.0859C25.0819 18.2953 25.2913 18.5703 25.5694 18.8484C26.1225 19.4078 26.9944 19.9984 28.1725 19.9984C29.1475 19.9984 29.9413 19.6734 30.4819 19.3672C30.7538 19.2109 30.9694 19.0578 31.1194 18.9359C31.1944 18.8766 31.2538 18.8234 31.2975 18.7828C31.3194 18.7641 31.3382 18.7453 31.3507 18.7328L31.3694 18.7172L31.3757 18.7109L31.3788 18.7078C31.3788 18.7078 31.3788 18.7078 30.6725 18.0016L31.3788 18.7078C31.7694 18.3172 31.7694 17.6828 31.3788 17.2922C30.9913 16.9047 30.36 16.9016 29.9694 17.2859C29.9663 17.2891 29.9632 17.2922 29.9538 17.2984C29.9382 17.3141 29.9069 17.3391 29.8663 17.3734C29.7819 17.4422 29.6538 17.5359 29.4882 17.6297C29.1538 17.8234 28.6975 17.9984 28.1725 17.9984C27.5225 17.9984 26.8475 17.7797 26.3132 17.5422C26.0507 17.4266 25.8319 17.3078 25.6788 17.2203C25.6038 17.1766 25.5444 17.1422 25.5038 17.1172C25.485 17.1047 25.4694 17.0953 25.46 17.0891L25.4507 17.0828Z" fill="#FDBA74"/>
</g>
<defs>
<clipPath id="clip0_1523_17596">
<path d="M16.6719 15H32.6719V31H16.6719V15Z" fill="white"/>
</clipPath>
</defs>
</svg>
